<svg width="80" height="80" viewBox="0 0 80 80" fill="none" xmlns="http://www.w3.org/2000/svg">
<path d="M64 0H16C7.16344 0 0 7.16344 0 16V64C0 72.8366 7.16344 80 16 80H64C72.8366 80 80 72.8366 80 64V16C80 7.16344 72.8366 0 64 0Z" fill="#B7FF00"/>
<path d="M34.0143 53C32.8383 53 31.8783 52.64 31.1343 51.92C30.4143 51.176 30.0543 50.192 30.0543 48.968V38.888H25.5903V35.144H30.0543V29.6H34.5903V35.144H39.4863V38.888H34.5903V48.176C34.5903 48.896 34.9263 49.256 35.5983 49.256H39.0543V53H34.0143ZM43.5923 53V35.144H48.0563V37.16H48.7043C48.9683 36.44 49.4003 35.912 50.0003 35.576C50.6243 35.24 51.3443 35.072 52.1603 35.072H54.3203V39.104H52.0883C50.9363 39.104 49.9883 39.416 49.2443 40.04C48.5003 40.64 48.1283 41.576 48.1283 42.848V53H43.5923Z" fill="#0A0A0A"/>
</svg>
