<svg width="80" height="80" viewBox="0 0 80 80" fill="none" xmlns="http://www.w3.org/2000/svg">
<path d="M64 0H16C7.16344 0 0 7.16344 0 16V64C0 72.8366 7.16344 80 16 80H64C72.8366 80 80 72.8366 80 64V16C80 7.16344 72.8366 0 64 0Z" fill="#0A0A0A"/>
<path d="M34.0143 54C32.8383 54 31.8783 53.64 31.1343 52.92C30.4143 52.176 30.0543 51.192 30.0543 49.968V39.888H25.5903V36.144H30.0543V30.6H34.5903V36.144H39.4863V39.888H34.5903V49.176C34.5903 49.896 34.9263 50.256 35.5983 50.256H39.0543V54H34.0143ZM43.5923 54V36.144H48.0563V38.16H48.7043C48.9683 37.44 49.4003 36.912 50.0003 36.576C50.6243 36.24 51.3443 36.072 52.1603 36.072H54.3203V40.104H52.0883C50.9363 40.104 49.9883 40.416 49.2443 41.04C48.5003 41.64 48.1283 42.576 48.1283 43.848V54H43.5923Z" fill="#B7FF00"/>
</svg>
