<svg width="300" height="140" viewBox="0 0 300 140" fill="none" xmlns="http://www.w3.org/2000/svg">
<path d="M56.2739 87C54.5752 87 53.1886 86.48 52.1139 85.44C51.0739 84.3653 50.5539 82.944 50.5539 81.176V66.616H44.1059V61.208H50.5539V53.2H57.1059V61.208H64.1779V66.616H57.1059V80.032C57.1059 81.072 57.5912 81.592 58.5619 81.592H63.5539V87H56.2739ZM70.1088 87V61.208H76.5568V64.12H77.4928C77.8741 63.08 78.4981 62.3173 79.3648 61.832C80.2661 61.3467 81.3061 61.104 82.4848 61.104H85.6048V66.928H82.3808C80.7168 66.928 79.3474 67.3787 78.2728 68.28C77.1981 69.1467 76.6608 70.4987 76.6608 72.336V87H70.1088ZM101.564 87.728C98.9985 87.728 96.7279 87.1907 94.7519 86.116C92.8105 85.0067 91.2852 83.464 90.1759 81.488C89.1012 79.4773 88.5639 77.12 88.5639 74.416V73.792C88.5639 71.088 89.1012 68.748 90.1759 66.772C91.2505 64.7613 92.7585 63.2187 94.6999 62.144C96.6412 61.0347 98.8945 60.48 101.46 60.48C103.991 60.48 106.192 61.052 108.064 62.196C109.936 63.3053 111.392 64.8653 112.432 66.876C113.472 68.852 113.992 71.1573 113.992 73.792V76.028H95.2199C95.2892 77.796 95.9479 79.2347 97.1959 80.344C98.4439 81.4533 99.9692 82.008 101.772 82.008C103.609 82.008 104.961 81.6093 105.828 80.812C106.695 80.0147 107.353 79.1307 107.804 78.16L113.16 80.968C112.675 81.8693 111.964 82.8573 111.028 83.932C110.127 84.972 108.913 85.8733 107.388 86.636C105.863 87.364 103.921 87.728 101.564 87.728ZM95.2719 71.14H107.336C107.197 69.6493 106.591 68.4533 105.516 67.552C104.476 66.6507 103.107 66.2 101.408 66.2C99.6399 66.2 98.2359 66.6507 97.1959 67.552C96.1559 68.4533 95.5145 69.6493 95.2719 71.14ZM124.47 87L116.254 61.208H123.222L129.202 82.216H130.138L136.118 61.208H143.086L134.87 87H124.47ZM154.949 87.728C153.111 87.728 151.465 87.416 150.009 86.792C148.553 86.1333 147.391 85.1973 146.525 83.984C145.693 82.736 145.277 81.228 145.277 79.46C145.277 77.692 145.693 76.2187 146.525 75.04C147.391 73.8267 148.57 72.9253 150.061 72.336C151.586 71.712 153.319 71.4 155.261 71.4H162.333V69.944C162.333 68.7307 161.951 67.7427 161.189 66.98C160.426 66.1827 159.213 65.784 157.549 65.784C155.919 65.784 154.706 66.1653 153.909 66.928C153.111 67.656 152.591 68.6093 152.349 69.788L146.317 67.76C146.733 66.4427 147.391 65.2467 148.293 64.172C149.229 63.0627 150.459 62.1787 151.985 61.52C153.545 60.8267 155.434 60.48 157.653 60.48C161.05 60.48 163.737 61.3293 165.713 63.028C167.689 64.7267 168.677 67.188 168.677 70.412V80.032C168.677 81.072 169.162 81.592 170.133 81.592H172.213V87H167.845C166.562 87 165.505 86.688 164.673 86.064C163.841 85.44 163.425 84.608 163.425 83.568V83.516H162.437C162.298 83.932 161.986 84.4867 161.501 85.18C161.015 85.8387 160.253 86.428 159.213 86.948C158.173 87.468 156.751 87.728 154.949 87.728ZM156.093 82.424C157.93 82.424 159.421 81.9213 160.565 80.916C161.743 79.876 162.333 78.5067 162.333 76.808V76.288H155.729C154.515 76.288 153.562 76.548 152.869 77.068C152.175 77.588 151.829 78.316 151.829 79.252C151.829 80.188 152.193 80.9507 152.921 81.54C153.649 82.1293 154.706 82.424 156.093 82.424ZM177.003 87V61.208H183.451V64.588H184.387C184.803 63.6867 185.583 62.8373 186.727 62.04C187.871 61.208 189.605 60.792 191.927 60.792C193.938 60.792 195.689 61.26 197.179 62.196C198.705 63.0973 199.883 64.3627 200.715 65.992C201.547 67.5867 201.963 69.4587 201.963 71.608V87H195.411V72.128C195.411 70.1867 194.926 68.7307 193.955 67.76C193.019 66.7893 191.667 66.304 189.899 66.304C187.889 66.304 186.329 66.98 185.219 68.332C184.11 69.6493 183.555 71.504 183.555 73.896V87H177.003ZM221.318 87.728C218.753 87.728 216.448 87.208 214.402 86.168C212.357 85.128 210.745 83.62 209.566 81.644C208.388 79.668 207.798 77.2933 207.798 74.52V73.688C207.798 70.9147 208.388 68.54 209.566 66.564C210.745 64.588 212.357 63.08 214.402 62.04C216.448 61 218.753 60.48 221.318 60.48C223.884 60.48 226.189 61 228.234 62.04C230.28 63.08 231.892 64.588 233.07 66.564C234.249 68.54 234.838 70.9147 234.838 73.688V74.52C234.838 77.2933 234.249 79.668 233.07 81.644C231.892 83.62 230.28 85.128 228.234 86.168C226.189 87.208 223.884 87.728 221.318 87.728ZM221.318 81.904C223.329 81.904 224.993 81.2627 226.31 79.98C227.628 78.6627 228.286 76.7907 228.286 74.364V73.844C228.286 71.4173 227.628 69.5627 226.31 68.28C225.028 66.9627 223.364 66.304 221.318 66.304C219.308 66.304 217.644 66.9627 216.326 68.28C215.009 69.5627 214.35 71.4173 214.35 73.844V74.364C214.35 76.7907 215.009 78.6627 216.326 79.98C217.644 81.2627 219.308 81.904 221.318 81.904Z" fill="#B7FF00"/>
</svg>
