<svg width="301" height="141" viewBox="0 0 301 141" fill="none" xmlns="http://www.w3.org/2000/svg">
<path d="M292.5 0.5H8.5C4.08172 0.5 0.5 4.08172 0.5 8.5V132.5C0.5 136.918 4.08172 140.5 8.5 140.5H292.5C296.918 140.5 300.5 136.918 300.5 132.5V8.5C300.5 4.08172 296.918 0.5 292.5 0.5Z" stroke="#CCCCCC" stroke-dasharray="4 3"/>
<path d="M66.7739 87.5C65.0752 87.5 63.6886 86.98 62.6139 85.94C61.5739 84.8653 61.0539 83.444 61.0539 81.676V67.116H54.6059V61.708H61.0539V53.7H67.6059V61.708H74.6779V67.116H67.6059V80.532C67.6059 81.572 68.0912 82.092 69.0619 82.092H74.0539V87.5H66.7739ZM80.6088 87.5V61.708H87.0568V64.62H87.9928C88.3741 63.58 88.9981 62.8173 89.8648 62.332C90.7661 61.8467 91.8061 61.604 92.9848 61.604H96.1048V67.428H92.8808C91.2168 67.428 89.8474 67.8787 88.7728 68.78C87.6981 69.6467 87.1608 70.9987 87.1608 72.836V87.5H80.6088ZM112.064 88.228C109.499 88.228 107.228 87.6907 105.252 86.616C103.311 85.5067 101.785 83.964 100.676 81.988C99.6012 79.9773 99.0639 77.62 99.0639 74.916V74.292C99.0639 71.588 99.6012 69.248 100.676 67.272C101.751 65.2613 103.259 63.7187 105.2 62.644C107.141 61.5347 109.395 60.98 111.96 60.98C114.491 60.98 116.692 61.552 118.564 62.696C120.436 63.8053 121.892 65.3653 122.932 67.376C123.972 69.352 124.492 71.6573 124.492 74.292V76.528H105.72C105.789 78.296 106.448 79.7347 107.696 80.844C108.944 81.9533 110.469 82.508 112.272 82.508C114.109 82.508 115.461 82.1093 116.328 81.312C117.195 80.5147 117.853 79.6307 118.304 78.66L123.66 81.468C123.175 82.3693 122.464 83.3573 121.528 84.432C120.627 85.472 119.413 86.3733 117.888 87.136C116.363 87.864 114.421 88.228 112.064 88.228ZM105.772 71.64H117.836C117.697 70.1493 117.091 68.9533 116.016 68.052C114.976 67.1507 113.607 66.7 111.908 66.7C110.14 66.7 108.736 67.1507 107.696 68.052C106.656 68.9533 106.015 70.1493 105.772 71.64ZM134.97 87.5L126.754 61.708H133.722L139.702 82.716H140.638L146.618 61.708H153.586L145.37 87.5H134.97ZM165.449 88.228C163.611 88.228 161.965 87.916 160.509 87.292C159.053 86.6333 157.891 85.6973 157.025 84.484C156.193 83.236 155.777 81.728 155.777 79.96C155.777 78.192 156.193 76.7187 157.025 75.54C157.891 74.3267 159.07 73.4253 160.561 72.836C162.086 72.212 163.819 71.9 165.761 71.9H172.833V70.444C172.833 69.2307 172.451 68.2427 171.689 67.48C170.926 66.6827 169.713 66.284 168.049 66.284C166.419 66.284 165.206 66.6653 164.409 67.428C163.611 68.156 163.091 69.1093 162.849 70.288L156.817 68.26C157.233 66.9427 157.891 65.7467 158.793 64.672C159.729 63.5627 160.959 62.6787 162.485 62.02C164.045 61.3267 165.934 60.98 168.153 60.98C171.55 60.98 174.237 61.8293 176.213 63.528C178.189 65.2267 179.177 67.688 179.177 70.912V80.532C179.177 81.572 179.662 82.092 180.633 82.092H182.713V87.5H178.345C177.062 87.5 176.005 87.188 175.173 86.564C174.341 85.94 173.925 85.108 173.925 84.068V84.016H172.937C172.798 84.432 172.486 84.9867 172.001 85.68C171.515 86.3387 170.753 86.928 169.713 87.448C168.673 87.968 167.251 88.228 165.449 88.228ZM166.593 82.924C168.43 82.924 169.921 82.4213 171.065 81.416C172.243 80.376 172.833 79.0067 172.833 77.308V76.788H166.229C165.015 76.788 164.062 77.048 163.369 77.568C162.675 78.088 162.329 78.816 162.329 79.752C162.329 80.688 162.693 81.4507 163.421 82.04C164.149 82.6293 165.206 82.924 166.593 82.924ZM187.503 87.5V61.708H193.951V65.088H194.887C195.303 64.1867 196.083 63.3373 197.227 62.54C198.371 61.708 200.105 61.292 202.427 61.292C204.438 61.292 206.189 61.76 207.679 62.696C209.205 63.5973 210.383 64.8627 211.215 66.492C212.047 68.0867 212.463 69.9587 212.463 72.108V87.5H205.911V72.628C205.911 70.6867 205.426 69.2307 204.455 68.26C203.519 67.2893 202.167 66.804 200.399 66.804C198.389 66.804 196.829 67.48 195.719 68.832C194.61 70.1493 194.055 72.004 194.055 74.396V87.5H187.503ZM231.818 88.228C229.253 88.228 226.948 87.708 224.902 86.668C222.857 85.628 221.245 84.12 220.066 82.144C218.888 80.168 218.298 77.7933 218.298 75.02V74.188C218.298 71.4147 218.888 69.04 220.066 67.064C221.245 65.088 222.857 63.58 224.902 62.54C226.948 61.5 229.253 60.98 231.818 60.98C234.384 60.98 236.689 61.5 238.734 62.54C240.78 63.58 242.392 65.088 243.57 67.064C244.749 69.04 245.338 71.4147 245.338 74.188V75.02C245.338 77.7933 244.749 80.168 243.57 82.144C242.392 84.12 240.78 85.628 238.734 86.668C236.689 87.708 234.384 88.228 231.818 88.228ZM231.818 82.404C233.829 82.404 235.493 81.7627 236.81 80.48C238.128 79.1627 238.786 77.2907 238.786 74.864V74.344C238.786 71.9173 238.128 70.0627 236.81 68.78C235.528 67.4627 233.864 66.804 231.818 66.804C229.808 66.804 228.144 67.4627 226.826 68.78C225.509 70.0627 224.85 71.9173 224.85 74.344V74.864C224.85 77.2907 225.509 79.1627 226.826 80.48C228.144 81.7627 229.808 82.404 231.818 82.404Z" fill="#0A0A0A"/>
</svg>
