<svg width="80" height="80" viewBox="0 0 80 80" fill="none" xmlns="http://www.w3.org/2000/svg">
  <path d="M64 0H16C7.16344 0 0 7.16344 0 16V64C0 72.8366 7.16344 80 16 80H64C72.8366 80 80 72.8366 80 64V16C80 7.16344 72.8366 0 64 0Z" fill="#B7FF00"/>
  <path d="M36.2308 55C33.8795 55 31.9595 54.28 30.4708 52.84C29.0308 51.3513 28.3108 49.3833 28.3108 46.936V36.776H21.6148V29.288H28.3108V19.4H37.3828V29.288H46.3108V36.776H37.3828V45.496C37.3828 46.456 37.8628 46.936 38.8228 46.936H45.3748V55H36.2308Z" fill="#0A0A0A"/>
</svg>
